HIERARCHY
ROOT Pelvis
{
	OFFSET 0.000000 0.000000 0.000000
	CHANNELS 6 Xposition Yposition Zposition Xrotation Yrotation Zrotation
	JOINT LeftUpLeg_virtual
	{
		OFFSET 0.000000 0.000000 0.000000
		CHANNELS 3 Xrotation Yrotation Zrotation
		JOINT LeftUpLeg
		{
			OFFSET 18.735201 -5.666702 -4.541200
			CHANNELS 3 Xrotation Yrotation Zrotation
			JOINT LeftLeg
			{
				OFFSET -0.021200 -31.938179 0.493100
				CHANNELS 3 Xrotation Yrotation Zrotation
				JOINT LeftFoot
				{
					OFFSET 0.021200 -31.938179 -4.336299
					CHANNELS 3 Xrotation Yrotation Zrotation
					JOINT LeftToeBase
					{
						OFFSET 0.943001 -26.722000 15.023500
						CHANNELS 3 Xrotation Yrotation Zrotation
						End Site
						{
							OFFSET 0 0 0
						}
					}
				}
			}
		}
	}
	JOINT RightUpLeg_virtual
	{
		OFFSET 0.000000 0.000000 0.000000
		CHANNELS 3 Xrotation Yrotation Zrotation
		JOINT RightUpLeg
		{
			OFFSET -18.735201 -5.666702 -4.541200
			CHANNELS 3 Xrotation Yrotation Zrotation
			JOINT RightLeg
			{
				OFFSET 0.018946 -31.938133 0.493100
				CHANNELS 3 Xrotation Yrotation Zrotation
				JOINT RightFoot
				{
					OFFSET -0.018946 -31.938126 -4.336299
					CHANNELS 3 Xrotation Yrotation Zrotation
					JOINT RightToeBase
					{
						OFFSET -0.943001 -26.722004 15.023500
						CHANNELS 3 Xrotation Yrotation Zrotation
						End Site
						{
							OFFSET 0 0 0
						}
					}
				}
			}
		}
	}
	JOINT Hips_virtual
	{
		OFFSET 0.000000 0.000000 0.000000
		CHANNELS 3 Xrotation Yrotation Zrotation
		JOINT Hips
		{
			OFFSET -0.000000 -0.000000 -0.000000
			CHANNELS 3 Xrotation Yrotation Zrotation
			JOINT Spine
			{
				OFFSET 0.000000 10.199997 -0.299500
				CHANNELS 3 Xrotation Yrotation Zrotation
				JOINT Spine1
				{
					OFFSET 0.000000 11.900002 -1.516600
					CHANNELS 3 Xrotation Yrotation Zrotation
					JOINT Spine2
					{
						OFFSET 0.000000 13.600006 -2.842500
						CHANNELS 3 Xrotation Yrotation Zrotation
						JOINT Neck_virtual
						{
							OFFSET 0.000000 0.000000 0.000000
							CHANNELS 3 Xrotation Yrotation Zrotation
							JOINT Neck
							{
								OFFSET 0.000000 9.624100 -2.890100
								CHANNELS 3 Xrotation Yrotation Zrotation
								JOINT Head
								{
									OFFSET 0.000000 14.068802 -1.351900
									CHANNELS 3 Xrotation Yrotation Zrotation
									End Site
									{
										OFFSET 0 0 0
									}
								}
							}
						}
						JOINT LeftShoulder_virtual
						{
							OFFSET 0.000000 0.000000 0.000000
							CHANNELS 3 Xrotation Yrotation Zrotation
							JOINT LeftShoulder
							{
								OFFSET 15.263000 10.923401 -0.547700
								CHANNELS 3 Xrotation Yrotation Zrotation
								JOINT LeftArm
								{
									OFFSET 25.438599 -2.830597 -13.032500
									CHANNELS 3 Xrotation Yrotation Zrotation
									JOINT LeftForeArm
									{
										OFFSET 29.960503 0.000000 0.000000
										CHANNELS 3 Xrotation Yrotation Zrotation
										JOINT LeftHand
										{
											OFFSET 27.849251 0.000000 0.000000
											CHANNELS 3 Xrotation Yrotation Zrotation
											End Site
											{
												OFFSET 0 0 0
											}
										}
									}
								}
							}
						}
						JOINT RightShoulder_virtual
						{
							OFFSET 0.000000 0.000000 0.000000
							CHANNELS 3 Xrotation Yrotation Zrotation
							JOINT RightShoulder
							{
								OFFSET -15.263000 10.923401 -0.547700
								CHANNELS 3 Xrotation Yrotation Zrotation
								JOINT RightArm
								{
									OFFSET -25.438599 -2.830597 -13.032500
									CHANNELS 3 Xrotation Yrotation Zrotation
									JOINT RightForeArm
									{
										OFFSET -29.960503 0.000000 0.000000
										CHANNELS 3 Xrotation Yrotation Zrotation
										JOINT RightHand
										{
											OFFSET -27.849251 0.000000 0.000000
											CHANNELS 3 Xrotation Yrotation Zrotation
											End Site
											{
												OFFSET 0 0 0
											}
										}
									}
								}
							}
						}
					}
				}
			}
		}
	}
}
MOTION
Frames: 12
Frame Time: 0.03333333
-31.830387 48.996780 271.838623 0.000000 0.000000 0.000000 -170.004611 13.711459 -177.238956 -109.045807 -6.615615 36.995662 111.280031 -1.720404 -3.704295 11.912219 -8.683420 12.239556 0.000000 0.000000 0.000000 -170.004611 13.711459 -177.238956 -116.883333 10.950146 -12.946003 115.582947 -7.541202 2.222611 11.139268 1.554935 -16.467549 0.000000 0.000000 0.000000 -170.004611 13.711459 -177.238956 0.000000 -0.000001 0.000000 16.790736 -3.841311 -8.994209 3.969197 -0.741152 -2.119500 0.000000 0.000000 0.000000 3.979509 -0.739454 -2.101521 0.364753 0.074949 0.061869 0.000000 0.000000 0.000000 3.979509 -0.739454 -2.101521 1.384114 -5.715089 -11.757634 -18.360578 -40.146223 -47.046128 -0.000007 -56.855471 -0.000010 0.000000 0.000000 0.000000 3.979509 -0.739454 -2.101521 -4.126463 21.353060 -2.025797 -21.913714 29.410771 24.489286 -179.999950 72.353601 179.999950 0.000000 0.000000 0.000000 
-31.812569 48.996201 271.837036 0.000000 0.000000 0.000000 -170.055523 13.723386 -177.245922 -109.086946 -6.664345 36.935669 111.278815 -1.729045 -3.700185 11.915507 -8.640483 12.222111 0.000000 0.000000 0.000000 -170.055523 13.723386 -177.245922 -116.917361 10.898123 -12.964369 115.579532 -7.537355 2.235389 11.121420 1.552955 -16.496184 0.000000 0.000000 0.000000 -170.055523 13.723386 -177.245922 -0.000001 0.000000 0.000000 16.769361 -3.814943 -8.964931 3.953006 -0.732006 -2.129828 0.000000 0.000000 0.000000 3.963048 -0.728871 -2.113283 0.363427 0.065776 0.081837 0.000000 0.000000 0.000000 3.963048 -0.728871 -2.113283 1.385775 -5.726419 -11.728835 -18.401728 -40.104286 -47.092764 0.000014 -56.770777 0.000016 0.000000 0.000000 0.000000 3.963048 -0.728871 -2.113283 -4.382719 20.715691 -2.732459 -23.680768 29.747875 24.695000 179.999991 71.448095 -179.999991 0.000000 0.000000 0.000000 
-31.798790 48.997734 271.834595 0.000000 0.000000 0.000000 -170.099168 13.740898 -177.264227 -109.113447 -6.752196 36.895821 111.282756 -1.755090 -3.697157 11.922975 -8.601786 12.135014 0.000000 0.000000 0.000000 -170.099168 13.740898 -177.264227 -116.931281 10.833722 -12.993701 115.555654 -7.528649 2.250733 11.102223 1.551109 -16.532362 0.000000 0.000000 0.000000 -170.099168 13.740898 -177.264227 0.000000 0.000000 0.000000 16.748059 -3.804958 -8.931823 3.936247 -0.726282 -2.133478 0.000000 0.000000 0.000000 3.946127 -0.719993 -2.117365 0.361500 0.059730 0.103594 0.000000 0.000000 0.000000 3.946127 -0.719993 -2.117365 1.383560 -5.752323 -11.707937 -18.417704 -40.033829 -47.130740 -0.000008 -56.739840 0.000005 0.000000 0.000000 0.000000 3.946127 -0.719993 -2.117365 -4.607654 20.141304 -3.226563 -25.254291 30.109301 24.691889 179.999950 70.810559 -179.999950 0.000000 0.000000 0.000000 
-31.785637 48.999016 271.833832 0.000000 0.000000 0.000000 -170.135081 13.756367 -177.278598 -109.134142 -6.806103 36.847911 111.288951 -1.762315 -3.689976 11.900560 -8.562206 12.102695 0.000000 0.000000 0.000000 -170.135081 13.756367 -177.278598 -116.948207 10.807305 -13.050126 115.557676 -7.489514 2.273249 11.079585 1.553697 -16.520534 0.000000 0.000000 0.000000 -170.135081 13.756367 -177.278598 0.000000 -0.000001 0.000000 16.698105 -3.799262 -8.878221 3.916779 -0.723957 -2.135149 0.000000 0.000000 0.000000 3.926628 -0.716447 -2.119209 0.356971 0.055356 0.123917 0.000000 0.000000 0.000000 3.926628 -0.716447 -2.119209 1.380640 -5.788624 -11.682023 -18.393609 -39.973419 -47.156394 0.000015 -56.711361 0.000007 0.000000 0.000000 0.000000 3.926628 -0.716447 -2.119209 -4.867073 19.612531 -3.735024 -26.682764 30.496207 24.731866 -179.999950 70.312467 179.999950 0.000000 0.000000 0.000000 
-31.782021 48.995293 271.833801 0.000000 0.000000 0.000000 -170.247765 13.786363 -177.323486 -109.263124 -6.921565 36.791811 111.305453 -1.773075 -3.685027 11.914707 -8.518039 12.076945 0.000000 0.000000 0.000000 -170.247765 13.786363 -177.323486 -117.001714 10.697226 -13.080353 115.501996 -7.474538 2.297854 11.063550 1.549410 -16.566023 0.000000 0.000000 0.000000 -170.247765 13.786363 -177.323486 0.000000 0.000000 0.000000 16.629484 -3.798813 -8.814816 3.896365 -0.724744 -2.135321 0.000000 0.000000 0.000000 3.906193 -0.716057 -2.119339 0.349701 0.052074 0.141331 0.000000 0.000000 0.000000 3.906193 -0.716057 -2.119339 1.383002 -5.816934 -11.640309 -18.324803 -39.978566 -47.169160 -0.000003 -56.633183 -0.000004 0.000000 0.000000 0.000000 3.906193 -0.716057 -2.119339 -5.111823 19.128723 -4.298373 -28.006641 30.826085 24.873450 179.999991 69.945399 -179.999991 0.000000 0.000000 0.000000 
-31.785114 48.998306 271.828918 0.000000 0.000000 0.000000 -170.312693 13.788478 -177.354359 -109.329868 -6.999554 36.745919 111.319161 -1.792991 -3.681401 11.908395 -8.479205 12.008999 0.000000 0.000000 0.000000 -170.312693 13.788478 -177.354359 -117.012178 10.655496 -13.125182 115.473910 -7.450988 2.317282 11.045264 1.546835 -16.572653 0.000000 0.000000 0.000000 -170.312693 13.788478 -177.354359 0.000000 -0.000001 0.000001 16.576413 -3.823733 -8.756214 3.878882 -0.732319 -2.134467 0.000000 0.000000 0.000000 3.888970 -0.722525 -2.118298 0.342296 0.048960 0.156620 0.000000 0.000000 0.000000 3.888970 -0.722525 -2.118298 1.396334 -5.822764 -11.591365 -18.228002 -40.018167 -47.167992 -0.000007 -56.503573 -0.000009 0.000000 0.000000 0.000000 3.888970 -0.722525 -2.118298 -5.339017 18.694202 -4.882528 -29.250794 31.095768 25.087930 -179.999964 69.676413 179.999950 0.000000 0.000000 0.000000 
-31.785221 49.005875 271.823395 0.000000 0.000000 0.000000 -170.350833 13.797808 -177.385354 -109.366389 -7.051799 36.701994 111.327739 -1.810202 -3.676720 11.903259 -8.439888 11.993450 0.000000 0.000000 0.000000 -170.350833 13.797808 -177.385354 -116.999747 10.602027 -13.164099 115.448830 -7.440548 2.330408 11.026356 1.537078 -16.590267 0.000000 0.000000 0.000000 -170.350833 13.797808 -177.385354 -0.000001 0.000000 0.000000 16.522663 -3.872865 -8.699836 3.861886 -0.746669 -2.133064 0.000000 0.000000 0.000000 3.872399 -0.735073 -2.116611 0.335790 0.045068 0.170090 0.000000 0.000000 0.000000 3.872399 -0.735073 -2.116611 1.411823 -5.818803 -11.549830 -18.123014 -40.048524 -47.157839 -0.000009 -56.337511 -0.000015 0.000000 0.000000 0.000000 3.872399 -0.735073 -2.116611 -5.581653 18.306220 -5.408076 -30.424962 31.323780 25.328541 179.999950 69.498350 -179.999964 0.000000 0.000000 0.000000 
-31.793762 49.010605 271.818542 0.000000 0.000000 0.000000 -170.386924 13.779628 -177.407361 -109.413640 -7.070408 36.648930 111.329372 -1.823278 -3.672493 11.897268 -8.402715 11.978112 0.000000 0.000000 0.000000 -170.386924 13.779628 -177.407361 -116.990868 10.609301 -13.209599 115.454827 -7.400893 2.345196 10.988889 1.519923 -16.552598 0.000000 0.000000 0.000000 -170.386924 13.779628 -177.407361 0.000001 0.000000 0.000000 16.435563 -3.895128 -8.637473 3.837517 -0.757861 -2.131591 0.000000 0.000000 0.000000 3.848325 -0.745020 -2.114815 0.328702 0.038481 0.180133 0.000000 0.000000 0.000000 3.848325 -0.745020 -2.114815 1.421339 -5.832052 -11.524357 -18.013664 -40.082979 -47.146190 -0.000005 -56.142646 0.000005 0.000000 0.000000 0.000000 3.848325 -0.745020 -2.114815 -5.843894 17.930172 -5.879753 -31.525749 31.461170 25.621025 179.999964 69.389012 -179.999950 0.000000 0.000000 0.000000 
-31.794502 49.003342 271.804016 0.000000 0.000000 0.000000 -170.471577 13.767598 -177.448697 -109.538947 -7.164167 36.605712 111.359015 -1.868452 -3.668797 11.905938 -8.352324 11.944867 0.000000 0.000000 0.000000 -170.471577 13.767598 -177.448697 -117.027191 10.558026 -13.216630 115.441890 -7.413051 2.358307 10.971999 1.514344 -16.564191 0.000000 0.000000 0.000000 -170.471577 13.767598 -177.448697 0.000000 -0.000001 0.000001 16.344489 -3.889951 -8.582509 3.808289 -0.759799 -2.130518 0.000000 0.000000 0.000000 3.819111 -0.747465 -2.113440 0.320069 0.030306 0.187726 0.000000 0.000000 0.000000 3.819111 -0.747465 -2.113440 1.427681 -5.860079 -11.507422 -17.910224 -40.131903 -47.135921 -0.000001 -55.938197 0.000002 0.000000 0.000000 0.000000 3.819111 -0.747465 -2.113440 -6.123192 17.547099 -6.333291 -32.524067 31.486089 25.944771 -179.999991 69.298526 -180.000005 0.000000 0.000000 0.000000 
-31.802994 49.005142 271.796814 0.000000 0.000000 0.000000 -170.499348 13.748697 -177.469884 -109.590003 -7.175553 36.567265 111.356556 -1.905289 -3.664588 11.936998 -8.297996 11.941725 0.000000 0.000000 0.000000 -170.499348 13.748697 -177.469884 -117.015224 10.556400 -13.225121 115.431454 -7.430253 2.364486 10.954524 1.517528 -16.551480 0.000000 0.000000 0.000000 -170.499348 13.748697 -177.469884 -0.000001 -0.000001 -0.000000 16.290269 -3.889713 -8.544439 3.782403 -0.758519 -2.130323 0.000000 0.000000 0.000000 3.793170 -0.747065 -2.113020 0.308178 0.023356 0.194665 0.000000 0.000000 0.000000 3.793170 -0.747065 -2.113020 1.435484 -5.876734 -11.485076 -17.838883 -40.167625 -47.137191 -0.000008 -55.750313 0.000008 0.000000 0.000000 0.000000 3.793170 -0.747065 -2.113020 -6.429372 17.163502 -6.746816 -33.405660 31.462501 26.230619 -180.000005 69.224466 -179.999991 0.000000 0.000000 0.000000 
-31.809086 49.008377 271.791504 0.000000 0.000000 0.000000 -170.516082 13.732947 -177.487902 -109.617856 -7.193659 36.538111 111.357273 -1.951132 -3.661208 11.926890 -8.254770 11.905481 0.000000 0.000000 0.000000 -170.516082 13.732947 -177.487902 -116.998477 10.556511 -13.226636 115.429528 -7.434175 2.365986 10.925540 1.518466 -16.526251 0.000000 0.000000 0.000000 -170.516082 13.732947 -177.487902 0.000000 0.000000 0.000000 16.246100 -3.903679 -8.517744 3.756942 -0.758017 -2.131484 0.000000 0.000000 0.000000 3.767745 -0.747026 -2.114090 0.294503 0.017750 0.201515 0.000000 0.000000 0.000000 3.767745 -0.747026 -2.114090 1.447110 -5.891188 -11.461596 -17.788167 -40.168903 -47.144810 -0.000010 -55.599461 0.000003 0.000000 0.000000 0.000000 3.767745 -0.747026 -2.114090 -6.765030 16.773411 -7.110198 -34.210457 31.432292 26.522302 179.999950 69.194010 -179.999950 0.000000 0.000000 0.000000 
-31.813099 49.002884 271.782806 0.000000 0.000000 0.000000 -170.587608 13.705229 -177.507259 -109.725411 -7.221941 36.492236 111.351993 -1.986199 -3.657278 11.970331 -8.206355 11.901318 0.000000 0.000000 0.000000 -170.587608 13.705229 -177.507259 -117.033119 10.539609 -13.212953 115.429213 -7.466766 2.366402 10.898464 1.516338 -16.509986 0.000000 0.000000 0.000000 -170.587608 13.705229 -177.507259 0.000000 -0.000001 0.000000 16.176962 -3.923129 -8.492825 3.729094 -0.763227 -2.134476 0.000000 0.000000 0.000000 3.740069 -0.750525 -2.117179 0.278958 0.014361 0.208263 0.000000 0.000000 0.000000 3.740069 -0.750525 -2.117179 1.454924 -5.907679 -11.440741 -17.722997 -40.128990 -47.137396 -0.000017 -55.506188 0.000002 0.000000 0.000000 0.000000 3.740069 -0.750525 -2.117179 -7.126988 16.395481 -7.424813 -34.979796 31.398557 26.878809 -179.999923 69.213551 179.999909 0.000000 0.000000 0.000000 
